<!-- 变压器 -->
<svg t="1715918657654" class="icon" viewBox="0 0 1024 1024" version="1.1" xmlns="http://www.w3.org/2000/svg" p-id="10932" width="200" height="200"><path d="M0 955.733333h1024v68.266667H0z" p-id="10933"></path><path d="M34.133333 273.066667v648.533333h955.733334V273.066667z m887.466667 580.266666H102.4V341.333333h819.2z" p-id="10934"></path><path d="M699.733333 477.866667H426.666667v34.133333h273.066666zM426.666667 716.8h204.8v-34.133333H426.666667z m0-68.266667h341.333333v-34.133333H426.666667z m0-102.4v34.133334h409.6v-34.133334z" p-id="10935"></path><path d="M256 494.933333l-76.8 136.533334h68.266667l76.8-136.533334h-68.266667z" p-id="10936"></path><path d="M290.133333 563.2l-76.8 136.533333h68.266667l76.8-136.533333h-68.266667z" p-id="10937"></path><path d="M221.866667 563.2l-34.133334 68.266667h128l34.133334-68.266667H221.866667z" p-id="10938"></path><path d="M238.933333 34.133333V0H102.4v34.133333h34.133333v34.133334h-34.133333v34.133333h34.133333v34.133333h-34.133333v34.133334h34.133333v34.133333h-34.133333v34.133333h34.133333v34.133334h68.266667v-34.133334h34.133333v-34.133333h-34.133333v-34.133333h34.133333v-34.133334h-34.133333v-34.133333h34.133333V68.266667h-34.133333V34.133333h34.133333z" p-id="10939"></path><path d="M580.266667 34.133333V0H443.733333v34.133333h34.133334v34.133334h-34.133334v34.133333h34.133334v34.133333h-34.133334v34.133334h34.133334v34.133333h-34.133334v34.133333h34.133334v34.133334h68.266666v-34.133334h34.133334v-34.133333h-34.133334v-34.133333h34.133334v-34.133334h-34.133334v-34.133333h34.133334V68.266667h-34.133334V34.133333h34.133334z" p-id="10940"></path><path d="M921.6 34.133333V0H785.066667v34.133333h34.133333v34.133334h-34.133333v34.133333h34.133333v34.133333h-34.133333v34.133334h34.133333v34.133333h-34.133333v34.133333h34.133333v34.133334h68.266667v-34.133334h34.133333v-34.133333h-34.133333v-34.133333h34.133333v-34.133334h-34.133333v-34.133333h34.133333V68.266667h-34.133333V34.133333h34.133333z"  fill="#2c2c2c" p-id="10941"></path></svg>