<!-- 电动汽车充电桩 -->
<svg t="1715918962192" class="icon" viewBox="0 0 1024 1024" version="1.1" xmlns="http://www.w3.org/2000/svg" p-id="13935" width="200" height="200"><path d="M961.728 151.744L855.68 46.4a49.088 49.088 0 0 0-69.44 69.44l68.8 68.96-50.752 52.96a44.096 44.096 0 0 0 0 61.376c7.776 8.384 18.72 13.088 30.144 12.928l57.408-0.128v450.048a30.016 30.016 0 1 1-60.064 0v-280A129.984 129.984 0 0 0 701.824 352h-30.016V112a80 80 0 0 0-80-80H171.968a80 80 0 0 0-80 80v780.064h-9.984a49.984 49.984 0 0 0 0 99.936h600a49.984 49.984 0 1 0 0-99.936h-10.176V452.128h30.048c16.576 0 30.016 13.44 30.016 30.016v279.872a129.984 129.984 0 1 0 259.936 0V223.584c0.032-27.008-10.816-52.896-30.08-71.84zM501.28 664.96l-149.44 211.712a7.52 7.52 0 0 1-5.44 2.304 3.2 3.2 0 0 1-2.336-0.768c-3.616-1.056-4.928-3.104-3.872-6.208l24.128-142.496H259.2a5.6 5.6 0 0 1-5.44-3.104c-1.536-2.08-1.28-4.384 0.768-7.04l161.888-211.68c2.08-3.104 4.416-3.616 7.04-1.504 2.56 0.512 3.84 2.624 3.84 6.24l-24.096 142.4h92.608a5.6 5.6 0 0 1 5.44 3.136 15.68 15.68 0 0 1 0.032 7.008z m70.56-276.832a43.84 43.84 0 0 1-43.968 43.968H235.84a43.84 43.84 0 0 1-43.968-44.032V176.032A43.84 43.84 0 0 1 235.84 132.064h292A43.84 43.84 0 0 1 571.84 176l0.032 212.064z" fill="#2c2c2c" p-id="13936"></path></svg>