<!-- 分布式电源 -->
<svg t="1715928485281" class="icon" viewBox="0 0 1024 1024" version="1.1" xmlns="http://www.w3.org/2000/svg" p-id="18188" width="200" height="200"><path d="M719.75 927.338c0.688-0.278 1.813-0.278 2.5 0 0.688 0.277 0.125 0.504-1.25 0.504s-1.938-0.227-1.25-0.504z m151 0c0.688-0.278 1.813-0.278 2.5 0 0.688 0.277 0.125 0.504-1.25 0.504s-1.938-0.227-1.25-0.504z m-710-1c0.688-0.278 1.813-0.278 2.5 0 0.688 0.277 0.125 0.504-1.25 0.504s-1.938-0.227-1.25-0.504z m-49.878-25.088c-1.243-1.586-1.208-1.621 0.378-0.378 1.666 1.307 2.195 2.128 1.372 2.128-0.207 0-0.995-0.787-1.75-1.75zM665.158 872c0-1.375 0.227-1.938 0.504-1.25 0.278 0.688 0.278 1.813 0 2.5-0.277 0.688-0.504 0.125-0.504-1.25z m262.037-0.5c0.02-1.65 0.244-2.204 0.498-1.231 0.254 0.973 0.237 2.323-0.037 3-0.274 0.677-0.481-0.119-0.461-1.769z m-832-11c0.02-1.65 0.244-2.204 0.498-1.231 0.254 0.973 0.237 2.323-0.037 3-0.274 0.677-0.481-0.119-0.461-1.769z m575.21-50.75l-1.905-2.25 2.25 1.905c2.114 1.79 2.705 2.595 1.905 2.595-0.19 0-1.202-1.012-2.25-2.25z m251-24l-1.905-2.25 2.25 1.905c2.114 1.79 2.705 2.595 1.905 2.595-0.19 0-1.202-1.012-2.25-2.25z m5.79-60.25c0.02-1.65 0.244-2.204 0.498-1.231 0.254 0.973 0.237 2.323-0.037 3-0.274 0.677-0.481-0.119-0.461-1.769z m-262.037-0.5c0-1.375 0.227-1.938 0.504-1.25 0.278 0.688 0.278 1.813 0 2.5-0.277 0.688-0.504 0.125-0.504-1.25z m54.592-55.662c0.688-0.278 1.813-0.278 2.5 0 0.688 0.277 0.125 0.504-1.25 0.504s-1.938-0.227-1.25-0.504z m151 0c0.688-0.278 1.813-0.278 2.5 0 0.688 0.277 0.125 0.504-1.25 0.504s-1.938-0.227-1.25-0.504z m-255.938-10.021c0.722-0.289 1.585-0.253 1.917 0.079 0.332 0.332-0.258 0.568-1.312 0.525-1.165-0.048-1.402-0.285-0.605-0.604zM633.5 651c0.995-1.1 2.035-2 2.31-2 0.275 0-0.315 0.9-1.31 2-0.995 1.1-2.035 2-2.31 2-0.275 0 0.315-0.9 1.31-2z m-248.026-91c0-39.325 0.124-55.413 0.276-35.75 0.151 19.663 0.151 51.837 0 71.5-0.152 19.663-0.276 3.575-0.276-35.75z m217.996 0c0-33.275 0.125-46.888 0.28-30.25 0.153 16.637 0.153 43.862 0 60.5-0.154 16.637-0.28 3.025-0.28-30.25z m39.994 0c0-27.775 0.128-39.138 0.285-25.25 0.157 13.887 0.157 36.612 0 50.5-0.157 13.887-0.285 2.525-0.285-25.25z m-273.592 47.25c-1.243-1.586-1.208-1.621 0.378-0.378 1.666 1.307 2.195 2.128 1.372 2.128-0.207 0-0.995-0.787-1.75-1.75z m-5.218-23.407c-0.806-14.993-0.671-38.19 0.296-50.843 0.488-6.385 0.78 2.386 0.888 26.75 0.09 19.938 0.006 36.25-0.184 36.25s-0.64-5.47-1-12.157z m-59.841-4.526c0.721-0.289 1.584-0.253 1.916 0.079 0.332 0.332-0.258 0.568-1.312 0.525-1.165-0.048-1.402-0.285-0.604-0.604z m-26.734-25.9c0.048-1.165 0.285-1.402 0.604-0.605 0.289 0.722 0.253 1.585-0.079 1.917-0.332 0.332-0.568-0.258-0.525-1.312zM317.479 448c0-50.875 0.122-71.688 0.27-46.25 0.15 25.438 0.15 67.063 0 92.5-0.148 25.438-0.27 4.625-0.27-46.25zM369 513.622c0-0.207 0.787-0.995 1.75-1.75 1.586-1.243 1.621-1.208 0.378 0.378-1.307 1.666-2.128 2.195-2.128 1.372z m264.405-44.872l-1.905-2.25 2.25 1.905c1.238 1.048 2.25 2.06 2.25 2.25 0 0.8-0.805 0.21-2.595-1.905z m-221.592-8.433c0.721-0.289 1.584-0.253 1.916 0.079 0.332 0.332-0.258 0.568-1.312 0.525-1.165-0.048-1.402-0.285-0.604-0.604z m203 0c0.721-0.289 1.584-0.253 1.916 0.079 0.332 0.332-0.258 0.568-1.312 0.525-1.165-0.048-1.402-0.285-0.605-0.604z m0-25c0.721-0.289 1.584-0.253 1.916 0.079 0.332 0.332-0.258 0.568-1.312 0.525-1.165-0.048-1.402-0.285-0.605-0.604zM633.5 427c0.995-1.1 2.035-2 2.31-2 0.275 0-0.315 0.9-1.31 2-0.995 1.1-2.035 2-2.31 2-0.275 0 0.315-0.9 1.31-2z m-248.026-91c0-39.325 0.124-55.413 0.276-35.75 0.151 19.663 0.151 51.837 0 71.5-0.152 19.663-0.276 3.575-0.276-35.75z m217.996 0c0-33.275 0.125-46.888 0.28-30.25 0.153 16.637 0.153 43.862 0 60.5-0.154 16.637-0.28 3.025-0.28-30.25z m39.994 0c0-27.775 0.128-39.138 0.285-25.25 0.157 13.887 0.157 36.612 0 50.5-0.157 13.887-0.285 2.525-0.285-25.25z m-273.592 47.25c-1.243-1.586-1.208-1.621 0.378-0.378 1.666 1.307 2.195 2.128 1.372 2.128-0.207 0-0.995-0.787-1.75-1.75z m-5.218-23.407c-0.806-14.993-0.671-38.19 0.296-50.843 0.488-6.385 0.78 2.386 0.888 26.75 0.09 19.938 0.006 36.25-0.184 36.25s-0.64-5.47-1-12.157z m-86.575-17.426c0.048-1.165 0.285-1.402 0.604-0.604 0.289 0.721 0.253 1.584-0.079 1.916-0.332 0.332-0.568-0.258-0.525-1.312zM369 289.622c0-0.207 0.787-0.995 1.75-1.75 1.586-1.243 1.621-1.208 0.378 0.378-1.307 1.666-2.128 2.195-2.128 1.372z m264.405-44.872l-1.905-2.25 2.25 1.905c1.238 1.048 2.25 2.06 2.25 2.25 0 0.8-0.805 0.21-2.595-1.905z m-221.592-8.433c0.721-0.289 1.584-0.253 1.916 0.079 0.332 0.332-0.258 0.568-1.312 0.525-1.165-0.048-1.402-0.285-0.604-0.604z m203 0c0.721-0.289 1.584-0.253 1.916 0.079 0.332 0.332-0.258 0.568-1.312 0.525-1.165-0.048-1.402-0.285-0.605-0.604zM95.194 163.5c0.02-1.65 0.244-2.204 0.498-1.231 0.254 0.973 0.237 2.323-0.037 3-0.274 0.677-0.481-0.119-0.461-1.769z m833 0c0.02-1.65 0.244-2.204 0.498-1.231 0.254 0.973 0.237 2.323-0.037 3-0.274 0.677-0.481-0.119-0.461-1.769zM110 123.622c0-0.207 0.787-0.995 1.75-1.75 1.586-1.243 1.621-1.208 0.378 0.378-1.307 1.666-2.128 2.195-2.128 1.372z m50.75-26.284c0.688-0.278 1.813-0.278 2.5 0 0.688 0.277 0.125 0.504-1.25 0.504s-1.938-0.227-1.25-0.504z m700 0c0.688-0.278 1.813-0.278 2.5 0 0.688 0.277 0.125 0.504-1.25 0.504s-1.938-0.227-1.25-0.504z" fill="#2c2c2c" p-id="18189"></path><path d="M718 927.027c-14.147-1.958-25.309-7.405-34.966-17.061-11.887-11.888-16.751-24.388-17.755-45.626l-0.583-12.34h40.136l0.334 11.832c0.314 11.112 0.501 12.05 3.082 15.43 1.51 1.98 4.21 4.642 6 5.918l3.252 2.32 76.5 0.291c42.075 0.16 78.014 0.018 79.864-0.317 4.548-0.821 12.787-9.059 13.613-13.61 0.336-1.85 0.478-11.552 0.317-21.559l-0.294-18.194-13.727 7.875-13.727 7.874-9.66-16.96c-5.314-9.327-9.486-17.108-9.273-17.291 1.315-1.131 55.936-32.181 59.284-33.702 5.18-2.352 9.996-2.366 15.112-0.042 4.616 2.097 10.113 7.926 11.227 11.903 0.42 1.503 0.728 20.957 0.685 43.232-0.073 37.421-0.23 41-2.068 47.079-6.065 20.06-21.68 35.55-41.853 41.522-5.492 1.626-12.521 1.794-83 1.982-42.35 0.113-79.475-0.137-82.5-0.556z m-560.19-1.07C128.3 922.516 105.316 902.409 97.277 873c-1.687-6.17-1.777-24.452-1.777-361s0.09-354.83 1.777-361c7.055-25.811 24.759-43.801 50.424-51.24l7.799-2.26H512c338.024 0 356.837 0.092 363 1.771 21.214 5.78 37.662 19.203 46.503 37.948 7.625 16.167 6.94-6.504 7.259 240.531l0.285 221.25H889V380.178c0-248.836 0.931-224.395-8.926-234.252-3.793-3.793-7.149-6.11-10.502-7.25C864.998 137.12 839.284 137 512 137s-352.998 0.12-357.572 1.676c-6.702 2.28-15.473 11.05-17.752 17.752C135.12 161.002 135 186.588 135 512c0 397.985-1.022 356.122 8.936 366.09 9.811 9.822-11.24 8.95 209.26 8.663l193.666-0.253-28.431-47.845L490 790.811V660h-36.816c-22.37 0-39.138-0.43-42.732-1.093-10.521-1.946-17.489-7.362-21.914-17.037l-2.574-5.629 0.268-77.37 0.268-77.371 2.467-4.83c2.963-5.8 8.62-11.124 14.91-14.033l4.623-2.137h211l5.214 2.358c6.494 2.936 13.35 10.138 15.869 16.67 1.829 4.743 1.917 8.451 1.917 80.472 0 72.02-0.088 75.73-1.917 80.472-2.52 6.532-9.375 13.734-15.87 16.67-5.193 2.349-5.39 2.36-50.463 2.672l-45.25 0.314V779.76l35.5 59.734c19.525 32.854 35.5 60.056 35.5 60.45 0 0.393-9.207 6.642-20.46 13.886L559.08 927l-197.29-0.131c-108.51-0.073-200.3-0.483-203.98-0.912zM604 560v-60H425v120h179z m73.491 254.135c-4.616-2.097-10.113-7.926-11.227-11.903-0.42-1.503-0.755-20.507-0.744-42.232 0.017-35.068 0.223-40.23 1.835-46 5.813-20.812 21.762-36.769 42.645-42.665 6.06-1.71 11.923-1.835 86.5-1.835s80.44 0.124 86.5 1.835c20.481 5.783 36.686 21.756 42.19 41.586 1.039 3.746 2.103 12.07 2.471 19.329l0.647 12.75h-40.14l-0.334-11.832c-0.314-11.112-0.501-12.05-3.082-15.43-1.51-1.98-4.21-4.642-6-5.918l-3.252-2.32h-158l-3.252 2.32c-1.79 1.276-4.49 3.94-6 5.919l-2.748 3.6-0.308 20.46c-0.282 18.704-0.167 20.405 1.347 19.824 0.91-0.349 7.223-3.744 14.029-7.544l12.374-6.91 1.895 3.166c5.358 8.948 17.326 30.832 17.017 31.118-0.953 0.884-54.01 30.144-58.354 32.182-5.988 2.809-10.608 2.953-16.009 0.5zM371.514 607.832C366.139 603.605 366 602.397 366 560s0.14-43.605 5.514-47.832c2.049-1.612 4.131-2.168 8.12-2.168H385v100h-5.365c-3.99 0-6.072-0.556-8.121-2.168zM644 560v-50.24l5.963 0.43C662.377 511.09 663 513.468 663 560s-0.623 48.911-13.037 49.81l-5.963 0.43z m-341.097 18.987c-11.838-2.002-21.232-11.39-23.804-23.786-1.538-7.417-1.538-206.985 0-214.402 2.062-9.938 8.403-17.822 17.85-22.193 4.265-1.973 6.517-2.126 35.801-2.431l31.25-0.326V356h-47v184h47v40l-28.25-0.118c-15.537-0.064-30.319-0.467-32.847-0.895zM409 434.637c-9.736-2.172-16.204-7.473-20.46-16.77l-2.576-5.626 0.268-77.37 0.268-77.371 2.467-4.83c2.963-5.8 8.62-11.124 14.91-14.033l4.623-2.137h211l5.214 2.358c6.494 2.936 13.35 10.138 15.869 16.67 1.829 4.743 1.917 8.451 1.917 80.472 0 72.02-0.088 75.73-1.917 80.472-2.52 6.532-9.375 13.734-15.87 16.67L619.5 435.5l-102.5 0.182c-77.888 0.138-103.82-0.113-108-1.045zM604 336v-60H425v120h179z m-232.486 47.832C366.139 379.604 366 378.397 366 336s0.14-43.605 5.514-47.832c2.049-1.612 4.131-2.168 8.12-2.168H385v100h-5.365c-3.99 0-6.072-0.556-8.121-2.168zM644 336v-50.24l5.963 0.43C662.377 287.09 663 289.468 663 336s-0.623 48.911-13.037 49.81l-5.963 0.43z" fill="#2c2c2c" p-id="18190"></path></svg>