<!-- 负荷 -->
<svg t="1715919032629" class="icon" viewBox="0 0 1024 1024" version="1.1" xmlns="http://www.w3.org/2000/svg" p-id="15969" width="200" height="200"><path d="M859.9 827.1H162.7c-18.3 0-33.2 14.9-33.2 33.2 0 18.3 14.9 33.2 33.2 33.2h697.2c18.3 0 33.2-14.9 33.2-33.2 0-18.3-14.8-33.2-33.2-33.2zM926.3 561.5c0-120.1-51.1-228.3-132.7-304.1l-28 66.1c58.3 62.3 94.3 145.8 94.3 237.9 0 40.8-7.4 79.8-20.3 116.2 0 18.3 16.3 33.2 36.9 33.2 18.3 0 27.9-15.3 33.2-33.2 10.8-36.8 16.6-75.8 16.6-116.1zM183 677.7c-12.9-36.4-20.3-75.4-20.3-116.2 0-192.5 156.1-348.6 348.6-348.6 30.6 0 60.1 4.3 88.4 11.7l45.6-55.9c-42.1-14.4-87.1-22.3-134-22.3-229.2 0-415 185.8-415 415 0 40.3 5.9 79.3 16.6 116.2 7.2 20.6 14.9 33.2 33.2 33.2 18.4 0.1 36.9-14.8 36.9-33.1zM411.7 536.6c0 59.6 48.3 107.9 107.9 107.9 59.6 0 107.9-48.3 107.9-107.9 0-18.2-4.6-35.4-12.6-50.5l139.8-333.4c11.3-27 5.5-30.3-13.1-7.3l-229 283.7c-56.3 3.6-100.9 50.3-100.9 107.5z m149.4 0c0 22.9-18.6 41.5-41.5 41.5s-41.5-18.6-41.5-41.5 18.6-41.5 41.5-41.5c23 0 41.5 18.6 41.5 41.5z"  fill="#2c2c2c" p-id="15970"></path></svg>