<!-- 开关 -->
<svg t="1715919054911" class="icon" viewBox="0 0 1024 1024" version="1.1" xmlns="http://www.w3.org/2000/svg" p-id="16987" width="200" height="200"><path d="M119.460254 532.414959l291.329135 0 0 0.511653-291.329135 0 0-0.511653Z" p-id="16988"></path><path d="M410.789389 532.414959l0 0.511653L119.460254 532.926612l0-0.511653L410.789389 532.414959M418.975838 524.228509l-8.18645 0L119.460254 524.228509l-8.18645 0 0 8.18645 0 0.511653 0 8.18645 8.18645 0 291.329135 0 8.18645 0 0-8.18645 0-0.511653L418.975838 524.228509 418.975838 524.228509z" p-id="16989"></path><path d="M100.857571 554.964534l-0.028653-0.25378-0.028653 0.25378-4.461615-0.499373 0.028653-0.25378-0.084934 0.240477-4.235464-1.481747 0.084934-0.2415-0.1361 0.216941-3.799536-2.38942 0.1361-0.216941-0.181125 0.181125-3.174296-3.174296 0.181125-0.182149-0.215918 0.137123-2.387373-3.798513 0.215918-0.137123-0.2415 0.084934-1.483794-4.236488 0.2415-0.084934-0.254803 0.028653-0.50142-4.460592 0.254803-0.028653-0.254803-0.027629 0.50142-4.459568 0.254803 0.028653-0.2415-0.084934 1.483794-4.239558 0.2415 0.084934-0.215918-0.1361 2.387373-3.798513 0.215918 0.1361-0.181125-0.181125 3.174296-3.174296 0.181125 0.181125-0.1361-0.216941 3.799536-2.390443 0.1361 0.216941-0.084934-0.2415 4.235464-1.479701 0.084934 0.2415-0.028653-0.25378 4.461615-0.502443 0.028653 0.25378 0.028653-0.25378 4.457522 0.502443-0.028653 0.25378 0.084934-0.2415 4.239558 1.479701-0.084934 0.2415 0.1361-0.216941 3.799536 2.390443-0.1361 0.216941 0.181125-0.181125 3.173273 3.174296-0.181125 0.181125 0.215918-0.1361 2.388397 3.798513-0.215918 0.1361 0.2415-0.083911 1.480724 4.239558-0.2415 0.083911 0.254803-0.028653 0.503467 4.459568-0.254803 0.027629 0.254803 0.028653-0.503467 4.460592-0.254803-0.028653 0.2415 0.083911-1.480724 4.236488-0.2415-0.083911 0.215918 0.137123-2.388397 3.798513-0.215918-0.137123 0.181125 0.182149-3.173273 3.174296-0.181125-0.181125 0.1361 0.216941-3.799536 2.38942-0.1361-0.216941 0.084934 0.2415-4.239558 1.481747-0.084934-0.240477 0.028653 0.25378L100.857571 554.964534zM96.424608 553.960671l4.40431 0.49221 4.400217-0.49221 4.184299-1.465374 3.751441-2.358721 3.13234-3.134387 2.357697-3.749394 1.462305-4.181229 0.497327-4.405333-0.497327-4.403287-1.462305-4.183276-2.357697-3.749394-3.13234-3.134387-3.751441-2.359744-4.184299-1.461281-4.40124-0.49528-4.40431 0.49528-4.181229 1.461281-3.751441 2.359744-3.133364 3.134387-2.357697 3.749394-1.464351 4.183276-0.49528 4.403287 0.49528 4.405333 1.464351 4.181229 2.357697 3.749394 3.133364 3.134387 3.751441 2.358721L96.424608 553.960671z" p-id="16990"></path><path d="M100.857571 514.371l4.457522 0.502443-0.028653 0.25378 0.084934-0.2415 4.239558 1.479701-0.084934 0.2415 0.1361-0.216941 3.799536 2.390443-0.1361 0.216941 0.181125-0.181125 3.173273 3.174296-0.181125 0.181125 0.215918-0.1361 2.388397 3.798513-0.215918 0.1361 0.2415-0.083911 1.480724 4.239558-0.2415 0.083911 0.254803-0.028653 0.503467 4.459568-0.254803 0.027629 0.254803 0.028653-0.503467 4.460592-0.254803-0.028653 0.2415 0.083911-1.480724 4.236488-0.2415-0.083911 0.215918 0.137123-2.388397 3.798513-0.215918-0.137123 0.181125 0.182149-3.173273 3.174296-0.181125-0.181125 0.1361 0.216941-3.799536 2.38942-0.1361-0.216941 0.084934 0.2415-4.239558 1.481747-0.084934-0.240477 0.028653 0.25378-4.457522 0.499373-0.028653-0.25378-0.028653 0.25378-4.461615-0.499373 0.028653-0.25378-0.084934 0.240477-4.235464-1.481747 0.084934-0.2415-0.1361 0.216941-3.799536-2.38942 0.1361-0.216941-0.181125 0.181125-3.174296-3.174296 0.181125-0.182149-0.215918 0.137123-2.387373-3.798513 0.215918-0.137123-0.2415 0.084934-1.483794-4.236488 0.2415-0.084934-0.254803 0.028653-0.50142-4.460592 0.254803-0.028653-0.254803-0.027629 0.50142-4.459568 0.254803 0.028653-0.2415-0.084934 1.483794-4.239558 0.2415 0.084934-0.215918-0.1361 2.387373-3.798513 0.215918 0.1361-0.181125-0.181125 3.174296-3.174296 0.181125 0.181125-0.1361-0.216941 3.799536-2.390443 0.1361 0.216941-0.084934-0.2415 4.235464-1.479701 0.084934 0.2415-0.028653-0.25378 4.461615-0.502443 0.028653 0.25378L100.857571 514.371M100.828918 554.452881l4.400217-0.49221 4.184299-1.465374 3.751441-2.358721 3.13234-3.134387 2.357697-3.749394 1.462305-4.181229 0.497327-4.405333-0.497327-4.403287-1.462305-4.183276-2.357697-3.749394-3.13234-3.134387-3.751441-2.359744-4.184299-1.461281-4.40124-0.49528-4.40431 0.49528-4.181229 1.461281-3.751441 2.359744-3.133364 3.134387-2.357697 3.749394-1.464351 4.183276-0.49528 4.403287 0.49528 4.405333 1.464351 4.181229 2.357697 3.749394 3.133364 3.134387 3.751441 2.358721 4.182252 1.465374L100.828918 554.452881M101.297592 504.461303l-0.474814 0.165776-0.467651-0.163729-0.130983 0.372483-2.650363 0.926092-2.790556-0.315178-0.217964-0.345877-0.432859 0.273223-0.496304-0.056282-0.044002 0.396019-2.382257 1.499144-2.772136 0.312108-0.285502-0.285502-0.358157 0.358157-0.502443 0.057305 0.045025 0.401136-1.974981 1.973958-2.660596 0.930185-0.334621-0.209778-0.26299 0.418532-0.496304 0.173962 0.13917 0.394996-1.486864 2.365884-2.353604 1.480724-0.396019-0.140193-0.173962 0.497327-0.415462 0.261966 0.207731 0.331551-0.929162 2.656503-1.974981 1.974981-0.410346-0.047072-0.057305 0.514723-0.364297 0.364297 0.290619 0.289596-0.312108 2.775206-1.494027 2.378164-0.393973 0.044002 0.055259 0.493234-0.271176 0.430812 0.342808 0.215918 0.313132 2.783393-0.933255 2.664689-0.372483 0.130983 0.163729 0.466628-0.161682 0.460488 0.36839 0.12996 0.934279 2.667759-0.316202 2.812045-0.325411 0.205685 0.255827 0.407276-0.059352 0.524956 0.418532 0.046049 1.473561 2.344395 0.315178 2.803859-0.277316 0.277316 0.347924 0.347924 0.058328 0.51677 0.411369-0.047072 1.976004 1.976004 0.929162 2.65241-0.210801 0.334621 0.420579 0.265036 0.171915 0.491187 0.391926-0.138146 2.356674 1.482771 1.485841 2.362814-0.138146 0.391926 0.49221 0.172939 0.281409 0.448208 0.355087-0.225127 2.620687 0.916882 1.980097 1.980097-0.046049 0.407276 0.511653 0.057305 0.349971 0.350994 0.279363-0.279363 2.791579 0.313132 2.368954 1.489934 0.044002 0.391926 0.49221-0.055259 0.438998 0.276293 0.220011-0.349971 2.772136-0.311085 2.679016 0.937348 0.127913 0.364297 0.456395-0.159636 0.463558 0.161682 0.12996-0.369414 2.675946-0.935302 2.761903 0.310062 0.225127 0.35918 0.451278-0.282433 0.475837 0.053212 0.042979-0.379647 2.38635-1.50119 2.788509-0.313132 0.281409 0.281409 0.352017-0.353041 0.503467-0.057305-0.045025-0.402159 1.982144-1.983167 2.613524-0.913812 0.356111 0.226151 0.282433-0.448208 0.499373-0.174985-0.140193-0.398066 1.481747-2.357697 2.387373-1.502213 0.3776 0.132006 0.165776-0.472767 0.413416-0.260943-0.207731-0.330528 0.931209-2.663666 1.968841-1.968841 0.407276 0.046049 0.058328-0.51063 0.344854-0.345877-0.275269-0.276293 0.316202-2.801812 1.481747-2.355651 0.418532-0.046049-0.059352-0.525979 0.25071-0.399089-0.319272-0.202615-0.320295-2.837628 0.914836-2.615571 0.390903-0.137123-0.171915-0.491187 0.173962-0.497327-0.396019-0.138146-0.911766-2.612501 0.317225-2.809999 0.336668-0.211824-0.265036-0.421602 0.055259-0.493234-0.393973-0.045025-1.502213-2.38942-0.313132-2.77316 0.288572-0.288572-0.361227-0.361227-0.058328-0.509606-0.405229 0.046049-1.967818-1.967818-0.931209-2.666736 0.204661-0.327458-0.409322-0.257873-0.167822-0.478907-0.381693 0.13303-2.384303-1.499144-1.482771-2.359744 0.141216-0.402159-0.50449-0.176009-0.264013-0.421602-0.335644 0.211824-2.653433-0.926092-1.977028-1.977028 0.044002-0.394996-0.494257-0.056282-0.361227-0.360204-0.287549 0.287549-2.769067-0.312108-2.399653-1.5104-0.044002-0.38374-0.479931 0.054235-0.446162-0.280386-0.223081 0.356111-2.7793 0.313132-2.648316-0.924045L101.297592 504.461303 101.297592 504.461303zM98.25428 523.409864l2.573615-0.289596 2.571568 0.289596 2.440585 0.851391 2.186805 1.375324 1.830695 1.832741 1.375324 2.187829 0.853437 2.441609 0.290619 2.570545-0.290619 2.571568-0.852414 2.439562-1.375324 2.188852-1.830695 1.830695-2.189875 1.376347-2.439562 0.854461-2.569522 0.287549-2.572592-0.287549-2.436492-0.853437-2.190899-1.37737-1.830695-1.831718-1.376347-2.188852-0.853437-2.438539-0.289596-2.571568 0.289596-2.570545 0.854461-2.439562 1.376347-2.189875 1.831718-1.831718 2.187829-1.376347L98.25428 523.409864 98.25428 523.409864z" p-id="16991"></path><path d="M444.728362 567.291281l-0.022513-0.254803-0.021489 0.254803-5.895267-0.515746 0.021489-0.254803-0.065492 0.246617-5.718235-1.532913 0.066515-0.246617-0.106424 0.233314-5.362124-2.498914 0.106424-0.232291-0.147356 0.209778-4.845355-3.396353 0.148379-0.209778-0.182149 0.181125-4.185322-4.183276 0.181125-0.181125-0.208754 0.147356-3.396353-4.845355 0.209778-0.148379-0.233314 0.107447-2.49789-5.365194 0.232291-0.107447-0.24764 0.065492-1.531889-5.714142 0.24764-0.065492-0.254803 0.021489-0.517793-5.897314 0.254803-0.021489-0.254803-0.021489 0.517793-5.89629 0.254803 0.021489-0.24764-0.065492 1.531889-5.717212 0.24764 0.065492-0.232291-0.107447 2.49789-5.363148 0.233314 0.107447-0.209778-0.147356 3.396353-4.848425 0.208754 0.147356-0.181125-0.181125 4.185322-4.183276 0.182149 0.181125-0.148379-0.209778 4.845355-3.393283 0.147356 0.209778-0.106424-0.233314 5.362124-2.50096 0.106424 0.233314-0.066515-0.24764 5.718235-1.532913 0.065492 0.24764-0.021489-0.254803 5.895267-0.515746 0.021489 0.254803 0.022513-0.254803 5.89629 0.515746-0.021489 0.254803 0.065492-0.24764 5.717212 1.532913-0.065492 0.24764 0.106424-0.233314 5.363148 2.50096-0.106424 0.233314 0.147356-0.209778 4.848425 3.393283-0.148379 0.209778 0.181125-0.181125 4.186346 4.183276-0.182149 0.181125 0.209778-0.147356 3.393283 4.848425-0.209778 0.147356 0.232291-0.107447 2.501984 5.363148-0.232291 0.107447 0.246617-0.065492 1.531889 5.717212-0.246617 0.065492 0.254803-0.021489 0.514723 5.89629-0.254803 0.021489 0.254803 0.021489-0.514723 5.897314-0.254803-0.021489 0.246617 0.065492-1.531889 5.714142-0.246617-0.065492 0.232291 0.107447-2.501984 5.365194-0.232291-0.107447 0.209778 0.148379-3.393283 4.845355-0.209778-0.147356 0.182149 0.181125-4.186346 4.183276-0.181125-0.181125 0.148379 0.209778-4.848425 3.396353-0.147356-0.209778 0.106424 0.232291-5.363148 2.498914-0.106424-0.233314 0.065492 0.246617-5.717212 1.532913-0.065492-0.246617 0.021489 0.254803L444.728362 567.291281zM438.854585 566.267974l5.851265 0.511653 5.852288-0.511653 5.67321-1.51961 5.322216-2.481518 4.811586-3.370771 4.154623-4.152577 3.367701-4.809539 2.483564-5.325285 1.520633-5.671163 0.51063-5.852288-0.51063-5.850242-1.520633-5.674233-2.483564-5.323239-3.367701-4.811586-4.154623-4.151553-4.811586-3.368724-5.322216-2.482541-5.67321-1.521656-5.852288-0.511653-5.851265 0.511653-5.67321 1.521656-5.322216 2.482541-4.809539 3.368724-4.1536 4.151553-3.370771 4.812609-2.479471 5.322216-1.520633 5.674233-0.5137 5.850242 0.5137 5.852288 1.520633 5.671163 2.479471 5.325285 3.370771 4.809539 4.1536 4.152577 4.809539 3.370771 5.322216 2.481518L438.854585 566.267974z" p-id="16992"></path><path d="M444.728362 498.881215l5.89629 0.515746-0.021489 0.254803 0.065492-0.24764 5.717212 1.532913-0.065492 0.24764 0.106424-0.233314 5.363148 2.50096-0.106424 0.233314 0.147356-0.209778 4.848425 3.393283-0.148379 0.209778 0.181125-0.181125 4.186346 4.183276-0.182149 0.181125 0.209778-0.147356 3.393283 4.848425-0.209778 0.147356 0.232291-0.107447 2.501984 5.363148-0.232291 0.107447 0.246617-0.065492 1.531889 5.717212-0.246617 0.065492 0.254803-0.021489 0.514723 5.89629-0.254803 0.021489 0.254803 0.021489-0.514723 5.897314-0.254803-0.021489 0.246617 0.065492-1.531889 5.714142-0.246617-0.065492 0.232291 0.107447-2.501984 5.365194-0.232291-0.107447 0.209778 0.148379-3.393283 4.845355-0.209778-0.147356 0.182149 0.181125-4.186346 4.183276-0.181125-0.181125 0.148379 0.209778-4.848425 3.396353-0.147356-0.209778 0.106424 0.232291-5.363148 2.498914-0.106424-0.233314 0.065492 0.246617-5.717212 1.532913-0.065492-0.246617 0.021489 0.254803-5.89629 0.515746-0.022513-0.254803-0.021489 0.254803-5.895267-0.515746 0.021489-0.254803-0.065492 0.246617-5.718235-1.532913 0.066515-0.246617-0.106424 0.233314-5.362124-2.498914 0.106424-0.232291-0.147356 0.209778-4.845355-3.396353 0.148379-0.209778-0.182149 0.181125-4.185322-4.183276 0.181125-0.181125-0.208754 0.147356-3.396353-4.845355 0.209778-0.148379-0.233314 0.107447-2.49789-5.365194 0.232291-0.107447-0.24764 0.065492-1.531889-5.714142 0.24764-0.065492-0.254803 0.021489-0.517793-5.897314 0.254803-0.021489-0.254803-0.021489 0.517793-5.89629 0.254803 0.021489-0.24764-0.065492 1.531889-5.717212 0.24764 0.065492-0.232291-0.107447 2.49789-5.363148 0.233314 0.107447-0.209778-0.147356 3.396353-4.848425 0.208754 0.147356-0.181125-0.181125 4.185322-4.183276 0.182149 0.181125-0.148379-0.209778 4.845355-3.393283 0.147356 0.209778-0.106424-0.233314 5.362124-2.50096 0.106424 0.233314-0.066515-0.24764 5.718235-1.532913 0.065492 0.24764-0.021489-0.254803 5.895267-0.515746 0.021489 0.254803L444.728362 498.881215M444.705849 566.779627l5.852288-0.511653 5.67321-1.51961 5.322216-2.481518 4.811586-3.370771 4.154623-4.152577 3.367701-4.809539 2.483564-5.325285 1.520633-5.671163 0.51063-5.852288-0.51063-5.850242-1.520633-5.674233-2.483564-5.323239-3.367701-4.811586-4.154623-4.151553-4.811586-3.368724-5.322216-2.482541-5.67321-1.521656-5.852288-0.511653-5.851265 0.511653-5.67321 1.521656-5.322216 2.482541-4.809539 3.368724-4.1536 4.151553-3.370771 4.812609-2.479471 5.322216-1.520633 5.674233-0.5137 5.850242 0.5137 5.852288 1.520633 5.671163 2.479471 5.325285 3.370771 4.809539 4.1536 4.152577 4.809539 3.370771 5.322216 2.481518 5.67321 1.51961L444.705849 566.779627M444.867532 489.372653l-0.160659 0.603751-0.160659-0.602727-3.584642 0.960885-3.65218-0.319272-0.055259 0.613984-0.265036-0.576121-3.390213 1.581008-3.668553 0.320295 0.059352 0.680499-0.39295-0.560772-3.025916 2.119267-3.585665 0.960885 0.177032 0.652869-0.470721-0.467651-2.593058 2.592035-3.307326 1.543146 0.295735 0.642636-0.591471-0.415462-2.130524 3.040243-3.045359 2.13257 0.382717 0.543376-0.598634-0.277316-1.553379 3.334955-2.607384 2.605338 0.493234 0.493234-0.669242-0.178055-0.950651 3.546779-2.12336 3.032056 0.562818 0.393973-0.675382-0.058328-0.322341 3.670599-1.560542 3.350304 0.577145 0.270153-0.64366 0.055259 0.324388 3.696182-0.957815 3.574409 0.599657 0.159636-0.600681 0.159636 0.958838 3.575432-0.327458 3.725858 0.591471 0.048095-0.520863 0.242524 1.559519 3.348258 0.322341 3.675716 0.724501-0.062422-0.598634 0.421602 2.114151 3.015683 0.948605 3.536546 0.668219-0.178055-0.493234 0.493234 2.603291 2.603291 1.555425 3.341095 0.597611-0.277316-0.378623 0.536212 3.043313 2.133593 2.131547 3.041266 0.569982-0.401136-0.289596 0.627287 3.327792 1.551332 2.586918 2.585895 0.459464-0.456395-0.172939 0.638543 3.579525 0.959861 3.038196 2.1295 0.393973-0.562818-0.058328 0.676405 3.672646 0.320295 3.388167 1.578961 0.264013-0.574075 0.055259 0.613984 3.65525-0.320295 3.574409 0.957815 0.168846-0.630357 0.168846 0.63138 3.573385-0.958838 3.686972 0.322341 0.048095-0.563842 0.23843 0.520863 3.387144-1.578961 3.674693-0.320295-0.058328-0.678452 0.393973 0.562818 3.037173-2.127454 3.549849-0.951675-0.173962-0.651846 0.476861 0.476861 2.603291-2.601244 3.325745-1.550309-0.304945-0.662079 0.602727 0.421602 2.12029-3.027963 3.043313-2.131547-0.363274-0.51677 0.566912 0.265036 1.556449-3.335978 2.635013-2.632967-0.458441-0.456395 0.61296 0.163729 0.953721-3.554966 2.105964-3.007497-0.596588-0.419556 0.731664 0.063445 0.320295-3.674693 1.561565-3.348258-0.525979-0.24457 0.584308-0.048095-0.324388-3.713578 0.959861-3.579525-0.62831-0.167822 0.627287-0.167822-0.958838-3.578502 0.321318-3.684926-0.63752-0.055259 0.582261-0.272199-1.562589-3.350304-0.320295-3.669576-0.682545 0.059352 0.560772-0.391926-2.116197-3.02387-0.955768-3.564175-0.613984 0.163729 0.458441-0.456395-2.638083-2.636037-1.554402-3.329838-0.567935 0.264013 0.367367-0.521886-3.045359-2.131547-2.118244-3.02694-0.623193 0.435928 0.311085-0.677429-3.305279-1.542122-2.610454-2.608407-0.488117 0.488117 0.177032-0.665149-3.555989-0.953721-3.024893-2.117221-0.39295 0.560772 0.059352-0.682545-3.670599-0.320295-3.390213-1.581008-0.239454 0.521886-0.048095-0.562818-3.683902 0.322341L444.867532 489.372653 444.867532 489.372653zM440.282097 507.995803l4.422729-0.38681 4.423753 0.38681 4.288676 1.151219 4.025687 1.876744 3.6399 2.548032 3.140527 3.137457 2.545986 3.637854 1.877767 4.027733 1.150196 4.288676 0.385786 4.422729-0.385786 4.424776-1.150196 4.28663-1.877767 4.027733-2.545986 3.635807-3.14155 3.140527-3.638877 2.549056-4.02364 1.87572-4.2897 1.149173-4.425799 0.38681-4.424776-0.38681-4.2897-1.149173-4.022617-1.87572-3.63683-2.549056-3.142573-3.140527-2.547009-3.634784-1.874697-4.02671-1.151219-4.290723-0.387833-4.422729 0.387833-4.420683 1.151219-4.293793 1.874697-4.02364 2.547009-3.637854 3.140527-3.13848 3.637854-2.548032 4.024663-1.876744L440.282097 507.995803 440.282097 507.995803z" p-id="16993"></path><path d="M610.811141 499.344846l-130.897959-81.533637 0.270511-0.434291 130.897959 81.533637-0.270511 0.434291Z" p-id="16994"></path><path d="M480.185922 417.370783l130.898259 81.534991-0.271176 0.433882-130.898259-81.533968L480.185922 417.370783M477.565235 406.092925l-4.327562 6.948249-0.271176 0.434905-4.328585 6.949272 6.949272 4.328585 130.898259 81.533968 6.941086 4.323469 4.330632-6.935969 0.271176-0.433882 4.339842-6.951319-6.956436-4.332678-130.898259-81.534991L477.565235 406.092925 477.565235 406.092925z" p-id="16995"></path><path d="M644.850216 533.24486l291.329135 0 0 0.511653-291.329135 0 0-0.511653Z" p-id="16996"></path><path d="M936.17935 533.24486l0 0.511653L644.850216 533.756513l0-0.511653L936.17935 533.24486M944.3658 525.05841l-8.18645 0L644.850216 525.05841l-8.18645 0 0 8.18645 0 0.511653 0 8.18645 8.18645 0 291.329135 0 8.18645 0 0-8.18645 0-0.511653L944.3658 525.05841 944.3658 525.05841z" p-id="16997"></path><path d="M954.840362 551.801495l-0.028653-0.25378-0.028653 0.25378-4.457522-0.50142 0.028653-0.25378-0.085958 0.2415-4.239558-1.483794 0.084934-0.240477-0.1361 0.216941-3.799536-2.387373 0.1361-0.216941-0.181125 0.181125-3.175319-3.176342 0.181125-0.181125-0.216941 0.1361-2.388397-3.798513 0.216941-0.1361-0.240477 0.083911-1.479701-4.236488 0.2415-0.083911-0.25378 0.027629-0.50449-4.460592 0.25378-0.028653-0.25378-0.028653 0.50449-4.456498 0.25378 0.028653-0.2415-0.083911 1.479701-4.238534 0.240477 0.083911-0.216941-0.1361 2.388397-3.802606 0.216941 0.1361-0.181125-0.181125 3.175319-3.175319 0.181125 0.182149-0.1361-0.217964 3.799536-2.387373 0.1361 0.217964-0.083911-0.2415 4.240581-1.479701 0.083911 0.2415-0.028653-0.254803 4.457522-0.505513 0.028653 0.254803 0.028653-0.254803 4.459568 0.505513-0.027629 0.254803 0.083911-0.2415 4.236488 1.479701-0.083911 0.2415 0.1361-0.217964 3.798513 2.387373-0.1361 0.217964 0.181125-0.182149 3.175319 3.175319-0.181125 0.181125 0.216941-0.1361 2.388397 3.802606-0.216941 0.1361 0.240477-0.084934 1.483794 4.238534-0.2415 0.084934 0.25378-0.028653 0.50142 4.456498-0.25378 0.028653 0.25378 0.028653-0.50142 4.460592-0.25378-0.027629 0.2415 0.084934-1.483794 4.236488-0.240477-0.084934 0.216941 0.1361-2.388397 3.798513-0.216941-0.1361 0.181125 0.181125-3.175319 3.176342-0.181125-0.181125 0.1361 0.216941-3.798513 2.387373-0.1361-0.216941 0.084934 0.240477-4.236488 1.483794-0.084934-0.2415 0.027629 0.25378L954.840362 551.801495zM950.409446 550.793538l4.402263 0.494257 4.40431-0.494257 4.181229-1.465374 3.749394-2.356674 3.134387-3.134387 2.357697-3.749394 1.466398-4.181229 0.493234-4.405333-0.493234-4.40124-1.466398-4.182252-2.357697-3.753487-3.134387-3.134387-3.749394-2.356674-4.181229-1.461281-4.40431-0.49835-4.402263 0.49835-4.184299 1.461281-3.750417 2.356674-3.134387 3.134387-2.357697 3.753487-1.461281 4.182252-0.497327 4.40124 0.497327 4.405333 1.461281 4.181229 2.357697 3.749394 3.134387 3.134387 3.750417 2.356674L950.409446 550.793538z" p-id="16998"></path><path d="M954.840362 511.203868l4.459568 0.505513-0.027629 0.254803 0.083911-0.2415 4.236488 1.479701-0.083911 0.2415 0.1361-0.217964 3.798513 2.387373-0.1361 0.217964 0.181125-0.182149 3.175319 3.175319-0.181125 0.181125 0.216941-0.1361 2.388397 3.802606-0.216941 0.1361 0.240477-0.084934 1.483794 4.238534-0.2415 0.084934 0.25378-0.028653 0.50142 4.456498-0.25378 0.028653 0.25378 0.028653-0.50142 4.460592-0.25378-0.027629 0.2415 0.084934-1.483794 4.236488-0.240477-0.084934 0.216941 0.1361-2.388397 3.798513-0.216941-0.1361 0.181125 0.181125-3.175319 3.176342-0.181125-0.181125 0.1361 0.216941-3.798513 2.387373-0.1361-0.216941 0.084934 0.240477-4.236488 1.483794-0.084934-0.2415 0.027629 0.25378-4.459568 0.50142-0.028653-0.25378-0.028653 0.25378-4.457522-0.50142 0.028653-0.25378-0.085958 0.2415-4.239558-1.483794 0.084934-0.240477-0.1361 0.216941-3.799536-2.387373 0.1361-0.216941-0.181125 0.181125-3.175319-3.176342 0.181125-0.181125-0.216941 0.1361-2.388397-3.798513 0.216941-0.1361-0.240477 0.083911-1.479701-4.236488 0.2415-0.083911-0.25378 0.027629-0.50449-4.460592 0.25378-0.028653-0.25378-0.028653 0.50449-4.456498 0.25378 0.028653-0.2415-0.083911 1.479701-4.238534 0.240477 0.083911-0.216941-0.1361 2.388397-3.802606 0.216941 0.1361-0.181125-0.181125 3.175319-3.175319 0.181125 0.182149-0.1361-0.217964 3.799536-2.387373 0.1361 0.217964-0.083911-0.2415 4.240581-1.479701 0.083911 0.2415-0.028653-0.254803 4.457522-0.505513 0.028653 0.254803L954.840362 511.203868M954.81171 551.288818l4.40431-0.494257 4.181229-1.465374 3.749394-2.356674 3.134387-3.134387 2.357697-3.749394 1.466398-4.181229 0.493234-4.405333-0.493234-4.40124-1.466398-4.182252-2.357697-3.753487-3.134387-3.134387-3.749394-2.356674-4.181229-1.461281-4.40431-0.49835-4.402263 0.49835-4.184299 1.461281-3.750417 2.356674-3.134387 3.134387-2.357697 3.753487-1.461281 4.182252-0.497327 4.40124 0.497327 4.405333 1.461281 4.181229 2.357697 3.749394 3.134387 3.134387 3.750417 2.356674 4.184299 1.465374L954.81171 551.288818M954.312336 501.288031l-0.13917 0.401136-2.595105 0.905626-2.781346-0.315178-0.221034-0.355087-0.444115 0.279363-0.50142-0.057305-0.045025 0.400113-2.39556 1.505283-2.736321 0.310062-0.304945-0.306992-0.384763 0.384763-0.499373 0.057305 0.046049 0.397043-1.972934 1.971911-2.664689 0.930185-0.332575-0.208754-0.260943 0.415462-0.463558 0.162706 0.128937 0.37146-1.505283 2.39556-2.384303 1.49812-0.376577-0.130983-0.163729 0.471744-0.402159 0.251733 0.200568 0.321318-0.937348 2.683109-1.970888 1.970888-0.400113-0.045025-0.057305 0.502443-0.367367 0.367367 0.292666 0.292666-0.314155 2.768043-1.50426 2.394537-0.397043 0.046049 0.056282 0.496304-0.273223 0.434905 0.346901 0.216941 0.316202 2.788509-0.909719 2.604314-0.400113 0.13917 0.176009 0.50142-0.174985 0.499373 0.397043 0.138146 0.910743 2.603291-0.316202 2.787486-0.348947 0.218988 0.275269 0.436952-0.056282 0.490164 0.390903 0.044002 1.511423 2.402723 0.313132 2.761903-0.290619 0.290619 0.364297 0.364297 0.054235 0.479931 0.382717-0.041956 1.991354 1.991354 0.931209 2.666736-0.207731 0.332575 0.415462 0.260943 0.164752 0.473791 0.378623-0.132006 2.38635 1.500167 1.473561 2.344395-0.140193 0.399089 0.50142 0.174985 0.264013 0.419556 0.333598-0.209778 2.653433 0.928139 1.977028 1.977028-0.047072 0.408299 0.512676 0.058328 0.35918 0.35918 0.286526-0.286526 2.784416 0.314155 2.385327 1.499144 0.045025 0.38988 0.488117-0.055259 0.441045 0.277316 0.220011-0.350994 2.76702-0.312108 2.663666 0.932232 0.132006 0.376577 0.471744-0.165776 0.436952 0.153496 0.124843-0.349971 2.700505-0.946558 2.762927 0.311085 0.221034 0.352017 0.441045-0.277316 0.487094 0.055259 0.045025-0.388856 2.385327-1.499144 2.784416-0.314155 0.285502 0.285502 0.358157-0.358157 0.48607-0.055259-0.042979-0.387833 2.001587-2.00261 2.650363-0.928139 0.335644 0.210801 0.265036-0.420579 0.50142-0.176009-0.141216-0.398066 1.473561-2.344395 2.353604-1.478677 0.394996 0.13917 0.173962-0.496304 0.423649-0.26606-0.211824-0.337691 0.930185-2.656503 1.99647-1.99647 0.391926 0.042979 0.056282-0.490164 0.354064-0.355087-0.282433-0.282433 0.313132-2.783393 1.503237-2.38942 0.385786-0.044002-0.054235-0.484024 0.277316-0.443092-0.353041-0.221034-0.311085-2.762927 0.933255-2.664689 0.372483-0.130983-0.162706-0.466628 0.164752-0.470721-0.376577-0.132006-0.932232-2.664689 0.311085-2.76395 0.350994-0.218988-0.277316-0.440022 0.056282-0.49221-0.39295-0.045025-1.496074-2.38021-0.314155-2.790556 0.284479-0.284479-0.357134-0.357134-0.058328-0.514723-0.409322 0.047072-1.977028-1.977028-0.935302-2.670829 0.203638-0.327458-0.407276-0.25685-0.173962-0.494257-0.393973 0.13917-2.350534-1.477654-1.50426-2.39556 0.127913-0.370437-0.462534-0.161682-0.261966-0.418532-0.334621 0.209778-2.662643-0.930185-1.997494-1.997494 0.040932-0.376577-0.471744-0.054235-0.38374-0.38374-0.304945 0.305969-2.735297-0.310062-2.39556-1.505283-0.045025-0.400113-0.500397 0.057305-0.445138-0.279363-0.221034 0.355087-2.775206 0.315178-2.599198-0.907673-0.137123-0.394996-0.497327 0.172939L954.312336 501.288031 954.312336 501.288031zM952.242188 520.244778l2.569522-0.291642 2.570545 0.291642 2.441609 0.852414 2.186805 1.3743 1.829671 1.829671 1.37737 2.193968 0.855484 2.440585 0.288572 2.567475-0.288572 2.571568-0.854461 2.437515-1.376347 2.189875-1.831718 1.831718-2.189875 1.376347-2.438539 0.854461-2.570545 0.287549-2.569522-0.287549-2.441609-0.855484-2.189875-1.375324-1.831718-1.831718-1.3743-2.185782-0.852414-2.440585-0.290619-2.572592 0.290619-2.568499 0.853437-2.443655 1.375324-2.189875 1.829671-1.829671 2.185782-1.373277L952.242188 520.244778 952.242188 520.244778z" p-id="16999"></path><path d="M610.956268 567.291281l-0.021489-0.254803-0.021489 0.254803-5.89629-0.515746 0.021489-0.254803-0.065492 0.246617-5.717212-1.532913 0.065492-0.246617-0.107447 0.233314-5.362124-2.498914 0.107447-0.232291-0.148379 0.209778-4.848425-3.396353 0.147356-0.209778-0.181125 0.181125-4.184299-4.183276 0.181125-0.181125-0.209778 0.147356-3.39226-4.845355 0.209778-0.148379-0.232291 0.107447-2.501984-5.365194 0.233314-0.107447-0.246617 0.065492-1.532913-5.714142 0.246617-0.065492-0.254803 0.021489-0.514723-5.897314 0.254803-0.021489-0.254803-0.021489 0.514723-5.89629 0.254803 0.021489-0.246617-0.065492 1.532913-5.717212 0.246617 0.065492-0.233314-0.107447 2.501984-5.363148 0.232291 0.107447-0.209778-0.147356 3.39226-4.848425 0.209778 0.147356-0.181125-0.181125 4.184299-4.183276 0.181125 0.181125-0.147356-0.209778 4.848425-3.393283 0.148379 0.209778-0.107447-0.233314 5.362124-2.50096 0.107447 0.233314-0.065492-0.24764 5.717212-1.532913 0.065492 0.24764-0.021489-0.254803 5.89629-0.515746 0.021489 0.254803 0.021489-0.254803 5.895267 0.515746-0.021489 0.254803 0.065492-0.24764 5.717212 1.532913-0.065492 0.24764 0.107447-0.233314 5.364171 2.50096-0.107447 0.233314 0.148379-0.209778 4.844332 3.393283-0.147356 0.209778 0.181125-0.181125 4.184299 4.183276-0.181125 0.181125 0.209778-0.147356 3.39533 4.848425-0.209778 0.147356 0.233314-0.107447 2.496867 5.363148-0.233314 0.107447 0.246617-0.065492 1.533936 5.717212-0.246617 0.065492 0.254803-0.021489 0.51677 5.89629-0.254803 0.021489 0.254803 0.021489-0.51677 5.897314-0.254803-0.021489 0.246617 0.065492-1.533936 5.714142-0.246617-0.065492 0.233314 0.107447-2.496867 5.365194-0.233314-0.107447 0.209778 0.148379-3.39533 4.845355-0.209778-0.147356 0.181125 0.181125-4.184299 4.183276-0.181125-0.181125 0.147356 0.209778-4.844332 3.396353-0.148379-0.209778 0.107447 0.232291-5.364171 2.498914-0.107447-0.233314 0.065492 0.246617-5.717212 1.532913-0.065492-0.246617 0.021489 0.254803L610.956268 567.291281zM605.08249 566.267974l5.851265 0.511653 5.850242-0.511653 5.674233-1.51961 5.323239-2.481518 4.809539-3.370771 4.152577-4.152577 3.370771-4.809539 2.480494-5.325285 1.520633-5.671163 0.512676-5.852288-0.512676-5.850242-1.520633-5.674233-2.480494-5.323239-3.370771-4.811586-4.152577-4.151553-4.809539-3.368724-5.323239-2.482541-5.674233-1.521656-5.850242-0.511653-5.851265 0.511653-5.674233 1.521656-5.322216 2.482541-4.812609 3.368724-4.152577 4.151553-3.366677 4.811586-2.485611 5.323239-1.51961 5.674233-0.51063 5.850242 0.51063 5.852288 1.51961 5.671163 2.485611 5.325285 3.366677 4.809539 4.152577 4.152577 4.813632 3.370771 5.321192 2.481518L605.08249 566.267974z" p-id="17000"></path><path d="M610.956268 498.881215l5.895267 0.515746-0.021489 0.254803 0.065492-0.24764 5.717212 1.532913-0.065492 0.24764 0.107447-0.233314 5.364171 2.50096-0.107447 0.233314 0.148379-0.209778 4.844332 3.393283-0.147356 0.209778 0.181125-0.181125 4.184299 4.183276-0.181125 0.181125 0.209778-0.147356 3.39533 4.848425-0.209778 0.147356 0.233314-0.107447 2.496867 5.363148-0.233314 0.107447 0.246617-0.065492 1.533936 5.717212-0.246617 0.065492 0.254803-0.021489 0.51677 5.89629-0.254803 0.021489 0.254803 0.021489-0.51677 5.897314-0.254803-0.021489 0.246617 0.065492-1.533936 5.714142-0.246617-0.065492 0.233314 0.107447-2.496867 5.365194-0.233314-0.107447 0.209778 0.148379-3.39533 4.845355-0.209778-0.147356 0.181125 0.181125-4.184299 4.183276-0.181125-0.181125 0.147356 0.209778-4.844332 3.396353-0.148379-0.209778 0.107447 0.232291-5.364171 2.498914-0.107447-0.233314 0.065492 0.246617-5.717212 1.532913-0.065492-0.246617 0.021489 0.254803-5.895267 0.515746-0.021489-0.254803-0.021489 0.254803-5.89629-0.515746 0.021489-0.254803-0.065492 0.246617-5.717212-1.532913 0.065492-0.246617-0.107447 0.233314-5.362124-2.498914 0.107447-0.232291-0.148379 0.209778-4.848425-3.396353 0.147356-0.209778-0.181125 0.181125-4.184299-4.183276 0.181125-0.181125-0.209778 0.147356-3.39226-4.845355 0.209778-0.148379-0.232291 0.107447-2.501984-5.365194 0.233314-0.107447-0.246617 0.065492-1.532913-5.714142 0.246617-0.065492-0.254803 0.021489-0.514723-5.897314 0.254803-0.021489-0.254803-0.021489 0.514723-5.89629 0.254803 0.021489-0.246617-0.065492 1.532913-5.717212 0.246617 0.065492-0.233314-0.107447 2.501984-5.363148 0.232291 0.107447-0.209778-0.147356 3.39226-4.848425 0.209778 0.147356-0.181125-0.181125 4.184299-4.183276 0.181125 0.181125-0.147356-0.209778 4.848425-3.393283 0.148379 0.209778-0.107447-0.233314 5.362124-2.50096 0.107447 0.233314-0.065492-0.24764 5.717212-1.532913 0.065492 0.24764-0.021489-0.254803 5.89629-0.515746 0.021489 0.254803L610.956268 498.881215M610.933755 566.779627l5.850242-0.511653 5.674233-1.51961 5.323239-2.481518 4.809539-3.370771 4.152577-4.152577 3.370771-4.809539 2.480494-5.325285 1.520633-5.671163 0.512676-5.852288-0.512676-5.850242-1.520633-5.674233-2.480494-5.323239-3.370771-4.811586-4.152577-4.151553-4.809539-3.368724-5.323239-2.482541-5.674233-1.521656-5.850242-0.511653-5.851265 0.511653-5.674233 1.521656-5.322216 2.482541-4.812609 3.368724-4.152577 4.151553-3.366677 4.811586-2.485611 5.323239-1.51961 5.674233-0.51063 5.850242 0.51063 5.852288 1.51961 5.671163 2.485611 5.325285 3.366677 4.809539 4.152577 4.152577 4.813632 3.370771 5.321192 2.481518 5.674233 1.51961L610.933755 566.779627M611.093391 489.372653l-0.160659 0.601704-0.159636-0.601704-3.584642 0.960885-3.684926-0.322341-0.053212 0.617054-0.261966-0.564865-3.364631 1.569752-3.667529 0.320295 0.062422 0.728594-0.417509-0.592494-3.004427 2.101871-3.555989 0.953721 0.177032 0.666172-0.490164-0.490164-2.613524 2.612501-3.326768 1.551332 0.293689 0.63445-0.581238-0.407276-2.118244 3.027963-3.021823 2.115174 0.38988 0.556679-0.610914-0.283456-1.555425 3.332908-2.619664 2.618641 0.481977 0.481977-0.652869-0.173962-0.955768 3.562129-2.116197 3.025916 0.559748 0.391926-0.683569-0.059352-0.320295 3.669576-1.568728 3.363607 0.563842 0.260943-0.61296 0.053212 0.321318 3.682879-0.959861 3.580548 0.627287 0.167822-0.62831 0.167822 0.959861 3.581572-0.323365 3.711532 0.559748 0.046049-0.506537 0.234337 1.567705 3.360538 0.320295 3.674693 0.732687-0.064468-0.595564 0.420579 2.108011 3.009544 0.952698 3.552919 0.651846-0.173962-0.481977 0.481977 2.616594 2.615571 1.556449 3.339048 0.60989-0.283456-0.385786 0.550539 3.019777 2.115174 2.12029 3.028986 0.560772-0.391926-0.288572 0.6191 3.347235 1.559519 2.607384 2.606361 0.478907-0.479931-0.173962 0.652869 3.549849 0.951675 3.015683 2.112104 0.419556-0.594541-0.062422 0.725524 3.671623 0.320295 3.361561 1.566682 0.260943-0.562818 0.053212 0.618077 3.687996-0.322341 3.573385 0.958838 0.167822-0.629333 0.168846 0.629333 3.574409-0.958838 3.686972 0.321318 0.053212-0.61603 0.260943 0.560772 3.359514-1.565658 3.674693-0.320295-0.063445-0.728594 0.422625 0.600681 3.0208-2.117221 3.541663-0.949628-0.173962-0.650823 0.476861 0.477884 2.602268-2.601244 3.355421-1.563612-0.286526-0.617054 0.551562 0.385786 2.122337-3.027963 3.018753-2.117221-0.399089-0.571005 0.639566 0.296759 1.556449-3.344165 2.601244-2.600221-0.481977-0.481977 0.648776 0.172939 0.949628-3.535523 2.12029-3.024893-0.597611-0.420579 0.725524 0.062422 0.322341-3.681856 1.560542-3.355421-0.499373-0.232291 0.564865-0.046049-0.326435-3.719718 0.959861-3.572362-0.629333-0.168846 0.62831-0.167822-0.958838-3.572362 0.323365-3.690042-0.618077-0.053212 0.556679-0.258896-1.562589-3.356444-0.321318-3.677762-0.677429 0.058328 0.562818-0.393973-2.1295-3.040243-0.951675-3.545756-0.650823 0.172939 0.481977-0.480954-2.604314-2.603291-1.555425-3.339048-0.641613 0.297782 0.404206-0.576121-3.0208-2.117221-2.12029-3.02694-0.573051 0.401136 0.292666-0.63138-3.337002-1.555425-2.608407-2.607384-0.488117 0.488117 0.177032-0.663102-3.547803-0.951675-3.00852-2.108011-0.421602 0.598634 0.064468-0.732687-3.670599-0.320295-3.362584-1.567705-0.261966 0.562818-0.053212-0.617054-3.683902 0.322341L611.093391 489.372653 611.093391 489.372653zM606.511026 507.995803l4.422729-0.38681 4.421706 0.38681 4.2897 1.151219 4.02671 1.876744 3.63683 2.547009 3.139503 3.139503 2.548032 3.63683 1.87572 4.025687 1.150196 4.291746 0.387833 4.421706-0.387833 4.422729-1.150196 4.290723-1.87572 4.025687-2.547009 3.635807-3.14155 3.14155-3.63683 2.548032-4.02364 1.874697-4.290723 1.150196-4.422729 0.38681-4.423753-0.38681-4.290723-1.150196-4.022617-1.87572-3.640923-2.548032-3.13848-3.13848-2.545986-3.637854-1.879813-4.028757-1.14815-4.285606-0.38681-4.425799 0.38681-4.423753 1.14815-4.287653 1.879813-4.02671 2.545986-3.6399 3.137457-3.136433 3.6399-2.547009 4.02671-1.877767L606.511026 507.995803 606.511026 507.995803z"  fill="#2c2c2c" p-id="17001"></path></svg>